<svg width="629" height="37" viewBox="0 0 629 37" fill="none" xmlns="http://www.w3.org/2000/svg">
<path d="M595.79 19.4779C595.79 23.6416 598.07 25.9217 602.234 25.9217H612.445C612.841 25.9217 613.138 26.2191 613.138 26.6156V28.9948C613.138 33.1585 615.419 35.4386 619.582 35.4386H622.556C626.72 35.4386 629 33.1585 629 28.9948V7.18526C629 3.02162 626.72 0.741525 622.556 0.741525H619.582C615.419 0.741525 613.138 3.02162 613.138 7.18526V16.3056C613.138 16.7022 612.841 16.9996 612.445 16.9996H612.345C611.949 16.9996 611.651 16.7022 611.651 16.3056V7.18526C611.651 3.02162 609.371 0.741525 605.208 0.741525H602.234C598.07 0.741525 595.79 3.02162 595.79 7.18526V19.4779ZM567.541 0.745491C563.377 0.745491 561.097 3.02558 561.097 7.18923V7.73645C561.097 12.4473 563.873 14.1802 568.433 13.0897L573.786 11.801C574.678 11.6027 575.174 11.7534 575.222 12.2451C575.321 12.7408 574.976 13.0382 574.278 13.2364L568.231 14.775C562.727 16.1629 561.093 18.2962 561.093 23.8954V29.0028C561.093 33.2655 563.274 35.4465 567.537 35.4465H587.859C592.023 35.4465 594.303 33.1664 594.303 29.0028C594.303 24.8391 591.971 22.559 587.859 22.559H579.881C579.484 22.559 579.187 22.2616 579.187 21.8651V21.766C579.187 21.3694 579.484 21.072 579.881 21.072H584.687C590.238 21.072 594.303 17.0075 594.303 11.456V10.3655C594.303 4.81397 590.238 0.749456 584.687 0.749456H567.537L567.541 0.745491ZM541.27 10.3615C541.27 9.96499 541.567 9.66759 541.964 9.66759H542.063C542.46 9.66759 542.757 9.96499 542.757 10.3615V25.8265C542.757 26.223 542.46 26.5204 542.063 26.5204H541.964C541.567 26.5204 541.27 26.223 541.27 25.8265V10.3576V10.3615ZM549.003 35.4425C554.554 35.4425 558.619 31.378 558.619 25.8265V10.3576C558.619 4.80604 554.554 0.741525 549.003 0.741525H535.025C529.473 0.741525 525.409 4.80604 525.409 10.3576V25.8225C525.409 31.3741 529.473 35.4386 535.025 35.4386H549.003V35.4425ZM496.66 0.745491C492.496 0.745491 490.216 3.02558 490.216 7.18923V7.73645C490.216 12.4473 492.992 14.1802 497.552 13.0897L502.905 11.801C503.797 11.6027 504.293 11.7534 504.34 12.2451C504.44 12.7408 504.095 13.0382 503.397 13.2364L497.349 14.775C491.846 16.1629 490.212 18.2962 490.212 23.8954V29.0028C490.212 33.2655 492.393 35.4465 496.656 35.4465H516.978C521.142 35.4465 523.422 33.1664 523.422 29.0028C523.422 24.8391 521.09 22.559 516.978 22.559H509C508.603 22.559 508.306 22.2616 508.306 21.8651V21.766C508.306 21.3694 508.603 21.072 509 21.072H513.806C519.357 21.072 523.422 17.0075 523.422 11.456V10.3655C523.422 4.81397 519.357 0.749456 513.806 0.749456H496.656L496.66 0.745491ZM476.734 35.4425L479.065 27.0161L478.074 26.7703C475.1 31.727 473.363 33.9555 471.134 33.9555H467.415C464.687 33.9555 464.687 33.21 464.687 30.9815V5.20257C464.687 2.72421 464.933 1.98269 467.415 1.98269H467.661V0.745491H457.252V1.98269H457.497C459.976 1.98269 460.226 2.72818 460.226 5.20257V30.9775C460.226 33.4559 459.98 34.1974 457.497 34.1974H457.252V35.4346H476.73L476.734 35.4425ZM444.416 10.8572L447.291 22.5551H441.588L444.412 10.8572H444.416ZM438.17 30.24C437.623 32.6192 436.683 34.2053 433.709 34.2053V35.4425H442.385V34.2053H442.14C439.661 34.2053 439.066 33.0633 439.713 30.3906L441.251 24.046H447.695L449.432 31.2313C450.027 33.6581 449.281 34.2053 447.053 34.2053H446.807V35.4425H457.759V34.2053C455.031 34.2053 454.488 33.214 453.841 30.6365L446.446 0.245853H445.455L438.166 30.232L438.17 30.24ZM435.196 5.95203C435.743 3.5728 436.683 1.98665 439.657 1.98665V0.745491H430.981V1.98269H431.227C433.705 1.98269 434.3 3.12472 433.654 5.79738L428.895 25.3784L423.938 4.95672C423.344 2.52991 424.089 1.98269 426.318 1.98269H426.564V0.745491H415.611V1.98269C418.339 1.98269 418.883 2.97403 419.529 5.55153L426.913 35.9342H427.904L435.192 5.94807L435.196 5.95203ZM397.771 35.4465H415.119V34.2093H413.383C409.171 34.2093 408.672 33.4638 408.672 30.4898V5.70221C408.672 2.72818 409.167 1.98269 413.383 1.98269H415.119V0.745491H397.771V1.98269H399.508C403.719 1.98269 404.219 2.72818 404.219 5.70221V30.4858C404.219 33.4599 403.723 34.2053 399.508 34.2053H397.771V35.4425V35.4465ZM376.061 0.745491L373.729 9.17192L374.72 9.41777C377.694 4.46105 379.431 2.23251 381.66 2.23251H383.642V30.9815C383.642 33.4599 383.147 34.2014 380.422 34.2014H379.927V35.4386H391.823V34.2014H391.327C388.599 34.2014 388.107 33.4559 388.107 30.9815V2.22854H390.09C392.319 2.22854 394.055 4.45708 397.029 9.41381L398.021 9.16795L395.689 0.741525H376.061V0.745491ZM363.074 0C358.363 0 353.906 2.97403 353.906 8.67624C353.906 17.8442 369.272 19.581 369.272 28.9988C369.272 32.7183 367.043 34.701 363.819 34.701C359.608 34.701 357.126 32.2227 354.651 25.2832L353.414 25.5291L355.246 35.9382L357.974 34.7486C358.72 35.2443 360.651 36.1841 363.823 36.1841C368.78 36.1841 373.241 33.21 373.241 27.0161C373.241 16.607 357.875 14.3745 357.875 6.69356C357.875 3.22385 360.354 1.49098 363.078 1.49098C366.797 1.49098 369.026 3.96934 371.504 10.9088L372.741 10.6629L370.909 0.253784L368.181 1.4434C367.487 0.947725 365.802 0.00793075 363.074 0.00793075M350.337 35.4505L352.669 27.024L351.677 26.7782C348.703 31.7349 346.967 33.9635 344.738 33.9635H340.277C337.549 33.9635 337.549 33.218 337.549 30.9894V18.3478H340.027C342.256 18.3478 344.238 18.8435 344.238 21.8175V22.0634H345.476V13.1413H344.238V13.3871C344.238 16.3611 342.256 16.8568 340.027 16.8568H337.549V5.20257C337.549 2.97403 337.549 2.22854 340.277 2.22854H343.996C346.225 2.22854 347.962 4.45708 350.936 9.41381L351.927 9.16795L349.596 0.741525H330.118V1.97872H330.363C332.842 1.97872 333.092 2.72421 333.092 5.19861V30.9736C333.092 33.4519 332.846 34.1934 330.363 34.1934H330.118V35.4306H350.341L350.337 35.4505ZM308.058 0.745491V1.98269H308.304C310.782 1.98269 311.032 2.72818 311.032 5.20257V30.9775C311.032 33.4559 310.786 34.1974 308.304 34.1974H308.058V35.4346H318.467V34.1974H318.222C315.743 34.1974 315.493 33.4519 315.493 30.9775V18.3359H317.722C319.95 18.3359 321.933 18.8316 321.933 21.8056V22.0515H323.17V13.1294H321.933V13.3752C321.933 16.3492 319.95 16.8449 317.722 16.8449H315.493V5.20257C315.493 2.97403 315.493 2.22854 318.222 2.22854H321.941C324.17 2.22854 325.906 4.45708 328.88 9.41381L329.872 9.16795L327.54 0.741525H308.062L308.058 0.745491ZM293.684 5.20654C293.684 2.72818 293.93 1.98665 296.412 1.98665H296.658V0.745491H288.878L284.813 22.8009L280.404 0.745491H272.374V1.98269C275.348 1.98269 275.844 3.71952 275.844 5.94807V30.236C275.844 32.4645 275.348 34.2014 272.374 34.2014V35.4386H280.8V34.2014C277.826 34.2014 277.331 32.4645 277.331 30.236V6.93941L283.033 35.4425H284.024L289.227 6.93941V30.9775C289.227 33.4559 288.981 34.1974 286.499 34.1974H286.253V35.4346H296.662V34.1974H296.416C293.938 34.1974 293.688 33.4519 293.688 30.9775V5.20257L293.684 5.20654ZM270.042 35.4425L272.374 27.0161L271.382 26.7703C268.408 31.727 266.672 33.9555 264.443 33.9555H260.724C257.995 33.9555 257.995 33.21 257.995 30.9815V5.20257C257.995 2.72421 258.241 1.98269 260.724 1.98269H260.969V0.745491H250.56V1.98269H250.806C253.285 1.98269 253.534 2.72818 253.534 5.20257V30.9775C253.534 33.4559 253.288 34.1974 250.806 34.1974H250.56V35.4346H270.038L270.042 35.4425ZM231.729 35.4425H249.077V34.2053H247.34C243.129 34.2053 242.63 33.4599 242.63 30.4858V5.70221C242.63 2.72818 243.125 1.98269 247.34 1.98269H249.077V0.745491H231.729V1.98269H233.466C237.677 1.98269 238.176 2.72818 238.176 5.70221V30.4858C238.176 33.4599 237.681 34.2053 233.466 34.2053H231.729V35.4425ZM210.161 0.745491V1.98269H210.407C212.885 1.98269 213.135 2.72818 213.135 5.20257V30.9775C213.135 33.4559 212.889 34.1974 210.407 34.1974H210.161V35.4346H220.57V34.1974H220.324C217.846 34.1974 217.596 33.4519 217.596 30.9775V18.3359H219.825C222.053 18.3359 224.036 18.8316 224.036 21.8056V22.0515H225.273V13.1294H224.036V13.3752C224.036 16.3492 222.053 16.8449 219.825 16.8449H217.596V5.20257C217.596 2.97403 217.596 2.22854 220.324 2.22854H224.044C226.272 2.22854 228.009 4.45708 230.983 9.41381L231.975 9.16795L229.643 0.741525H210.165L210.161 0.745491ZM185.377 2.23251C189.343 2.23251 192.317 4.46105 192.317 9.41777C192.317 14.3745 189.64 16.8529 185.377 16.8529H183.149V5.20257C183.149 2.97403 183.645 2.22854 185.377 2.22854M185.822 18.3359L193.058 35.4346H199.752V34.1974H199.506C197.523 34.1974 197.127 33.6502 196.183 31.3741L190.334 17.5944C194.252 16.3056 197.274 13.4783 197.274 9.41777C197.274 3.22385 191.571 0.741525 185.377 0.741525H175.71V1.97872H175.956C178.434 1.97872 178.684 2.72421 178.684 5.19861V30.9736C178.684 33.4519 178.438 34.1934 175.956 34.1934H175.71V35.4306H186.119V34.1934H185.873C183.395 34.1934 183.145 33.448 183.145 30.9736V18.3319H185.822V18.3359ZM162.87 10.8493L165.745 22.5471H160.043L162.866 10.8493H162.87ZM156.624 30.232C156.077 32.6113 155.137 34.1974 152.163 34.1974V35.4346H160.84V34.1974H160.594C158.115 34.1974 157.521 33.0554 158.167 30.3827L159.706 24.0381H166.149L167.886 31.2234C168.481 33.6502 167.735 34.1974 165.507 34.1974H165.261V35.4346H176.213V34.1974C173.485 34.1974 172.942 33.2061 172.296 30.6286L164.908 0.245853H163.917L156.628 30.232H156.624ZM134.176 0.745491L131.845 9.17192L132.836 9.41777C135.81 4.46105 137.543 2.23251 139.776 2.23251H141.758V30.9815C141.758 33.4599 141.263 34.2014 138.538 34.2014H138.043V35.4386H149.939V34.2014H149.443C146.715 34.2014 146.223 33.4559 146.223 30.9815V2.22854H148.206C150.435 2.22854 152.171 4.45708 155.145 9.41381L156.137 9.16795L153.805 0.741525H134.176V0.745491ZM121.19 0C116.479 0 112.022 2.97403 112.022 8.67624C112.022 17.8442 127.388 19.581 127.388 28.9988C127.388 32.7183 125.159 34.701 121.935 34.701C117.724 34.701 115.242 32.2227 112.767 25.2832L111.53 25.5291L113.362 35.9382L116.09 34.7486C116.836 35.2443 118.767 36.1841 121.939 36.1841C126.896 36.1841 131.357 33.21 131.357 27.0161C131.357 16.607 115.991 14.3745 115.991 6.69356C115.991 3.22385 118.47 1.49098 121.194 1.49098C124.913 1.49098 127.142 3.96934 129.62 10.9088L130.857 10.6629L129.025 0.253784L126.297 1.4434C125.603 0.947725 123.918 0.00793075 121.19 0.00793075M94.9192 5.21051C94.9192 2.73214 95.1651 1.99062 97.6474 1.99062H97.8933V0.745491H87.4842V1.98269H87.73C90.2084 1.98269 90.4582 2.72818 90.4582 5.20257V30.9775C90.4582 33.4559 90.2123 34.1974 87.73 34.1974H87.4842V35.4346H97.8933V34.1974H97.6474C95.1691 34.1974 94.9192 33.4519 94.9192 30.9775V21.8572L97.8457 17.4952L103.496 31.2234C104.535 33.7533 103.845 34.1974 102.009 34.1974H101.763V35.4346H112.272V34.1974H112.026C110.043 34.1974 109.25 33.5035 108.306 31.2234L100.82 13.0818L105.578 5.9441C107.263 3.41419 108.798 1.97872 111.772 1.97872V0.745491H103.096V1.98269H103.342C106.316 1.98269 105.277 3.66797 103.837 5.84893L94.9153 19.1805V5.20257L94.9192 5.21051ZM72.3642 18.098C72.3642 6.94734 74.8425 1.49098 78.8079 1.49098C81.5361 1.49098 83.269 3.96934 85.7473 10.9088L86.9845 10.6629L85.1525 0.253784L82.4243 1.4434C81.7819 0.947725 80.2434 0.00793075 78.0624 0.00793075C72.1143 0.00793075 67.1576 6.20185 67.1576 18.098C67.1576 29.9941 72.1143 36.188 78.0624 36.188C85.4975 36.188 86.9845 26.2746 86.9845 26.2746L85.7473 26.0287C85.7473 26.0287 84.2603 34.2053 79.0538 34.2053C75.0884 34.2053 72.3602 29.4945 72.3602 18.098M55.0593 10.8612L57.9342 22.559H52.2319L55.0553 10.8612H55.0593ZM48.8138 30.2439C48.2666 32.6232 47.3268 34.2093 44.3527 34.2093V35.4465H53.029V34.2093H52.7831C50.3048 34.2093 49.71 33.0673 50.3563 30.3946L51.8949 24.05H58.3386L60.0755 31.2353C60.6703 33.6621 59.9248 34.2093 57.6962 34.2093H57.4504V35.4465H68.4028V34.2093C65.6746 34.2093 65.1313 33.218 64.485 30.6405L57.1014 0.245853H56.1101L48.8217 30.232L48.8138 30.2439ZM43.0164 35.4465L45.3481 27.0201L44.3567 26.7742C41.3827 31.7309 39.6458 33.9595 37.4173 33.9595H33.7017C30.9736 33.9595 30.9736 33.214 30.9736 30.9855V5.20257C30.9736 2.72421 31.2194 1.98269 33.7017 1.98269H33.9476V0.745491H23.5385V1.98269H23.7843C26.2627 1.98269 26.5125 2.72818 26.5125 5.20257V30.9775C26.5125 33.4559 26.2667 34.1974 23.7843 34.1974H23.5385V35.4346H43.0164V35.4465ZM10.9048 2.22854C14.6243 2.22854 16.8529 4.45708 16.8529 8.9221C16.8529 13.633 14.6243 16.1074 11.1506 16.1074H7.43112V5.20257C7.43112 2.97403 7.67697 2.22854 9.65966 2.22854H10.8969H10.9048ZM11.1506 17.5944C15.2667 17.5944 17.5944 20.5684 17.5944 25.9217C17.5944 31.2749 14.8662 33.9516 10.655 33.9516H9.66362C7.43508 33.9516 7.43508 33.2061 7.43508 30.9775V17.5944H11.1546H11.1506ZM0 35.4425H10.6589C18.094 35.4425 22.8009 31.4772 22.8009 25.9256C22.8009 17.8442 14.8702 16.9044 14.8702 16.9044V16.6585C14.8702 16.6585 21.5637 15.12 21.5637 8.68021C21.5637 4.46898 18.094 0.749456 10.9048 0.749456H0V1.98665H0.245853C2.72421 1.98665 2.97403 2.73214 2.97403 5.20654V30.9815C2.97403 33.4599 2.72818 34.2014 0.245853 34.2014H0V35.4386L0 35.4425Z" fill="#F1ECE6"/>
</svg>
