<svg width="140" height="70" viewBox="0 0 140 70" fill="none" xmlns="http://www.w3.org/2000/svg">
<g clip-path="url(#clip0_1_2106)">
<path d="M138.689 44.227L139.902 39.843L139.386 39.7148C137.839 42.2941 136.936 43.4536 135.775 43.4536H133.841C132.423 43.4536 132.423 43.0662 132.423 41.9068V28.497C132.423 27.208 132.551 26.8206 133.841 26.8206H133.969V26.1754H128.554V26.8206H128.684C129.973 26.8206 130.102 27.208 130.102 28.497V41.9068C130.102 43.1958 129.973 43.5831 128.684 43.5831H128.554V44.2283H138.689V44.227ZM121.875 31.4352L123.371 37.5215H120.405L121.876 31.4352H121.875ZM118.625 41.5194C118.342 42.7579 117.852 43.5831 116.304 43.5831V44.2283H120.817V43.5831H120.688C119.399 43.5831 119.089 42.9898 119.425 41.5971L120.224 38.2962H123.577L124.48 42.035C124.789 43.2981 124.402 43.5818 123.243 43.5818H123.113V44.227H128.812V43.5818C127.393 43.5818 127.11 43.0662 126.774 41.7254L122.932 25.9176H122.416L118.625 41.5194ZM117.077 28.883C117.361 27.6458 117.851 26.8206 119.399 26.8206V26.1754H114.887V26.8206H115.015C116.304 26.8206 116.614 27.4139 116.278 28.8066L113.802 38.9932L111.223 28.3687C110.913 27.1056 111.301 26.8219 112.46 26.8219H112.59V26.1767H106.891V26.8219C108.309 26.8219 108.593 27.3375 108.929 28.6784L112.771 44.4861H113.287L117.077 28.8843V28.883ZM97.6072 44.227H106.633V43.5818H105.73C103.538 43.5818 103.28 43.1945 103.28 41.6477V28.7535C103.28 27.2067 103.538 26.8193 105.73 26.8193H106.633V26.1741H97.6072V26.8193H98.5102C100.702 26.8193 100.96 27.2067 100.96 28.7535V41.6477C100.96 43.1945 100.702 43.5818 98.5102 43.5818H97.6072V44.227ZM86.313 26.1754L85.1004 30.5594L85.616 30.6877C87.1628 28.1083 88.0658 26.9489 89.2266 26.9489H90.2578V41.9068C90.2578 43.1958 90 43.5831 88.5814 43.5831H88.3236V44.2283H94.5122V43.5831H94.2544C92.8359 43.5831 92.578 43.1958 92.578 41.9068V26.9489H93.6093C94.7701 26.9489 95.673 28.1096 97.2198 30.6877L97.7355 30.5594L96.5229 26.1754H86.3104H86.313ZM79.5569 25.7881C77.1071 25.7881 74.7856 27.3349 74.7856 30.3016C74.7856 35.073 82.7802 35.9746 82.7802 40.8742C82.7802 42.8084 81.6194 43.8396 79.943 43.8396C77.751 43.8396 76.462 42.5506 75.1717 38.94L74.5265 39.0696L75.4813 44.4848L76.8999 43.8656C77.2872 44.1234 78.2925 44.6131 79.943 44.6131C82.5223 44.6131 84.8426 43.0662 84.8426 39.8417C84.8426 34.4265 76.848 33.2657 76.848 29.2691C76.848 27.4645 78.1371 26.5615 79.5556 26.5615C81.4898 26.5615 82.6506 27.8505 83.9396 31.4611L84.5848 31.3328L83.6313 25.9176L82.2127 26.5369C81.8513 26.2791 80.9755 25.7894 79.5569 25.7894M72.9291 44.227L74.1417 39.843L73.6261 39.7148C72.0793 42.2941 71.1763 43.4536 70.0155 43.4536H67.694C66.2754 43.4536 66.2754 43.0662 66.2754 41.9068V35.3308H67.5645C68.7252 35.3308 69.7564 35.5886 69.7564 37.1354V37.2637H70.4016V32.6219H69.7564V32.7501C69.7564 34.297 68.7252 34.5548 67.5645 34.5548H66.2754V28.4944C66.2754 27.3336 66.2754 26.9476 67.694 26.9476H69.6282C70.789 26.9476 71.6919 28.1083 73.2388 30.6864L73.7544 30.5581L72.5418 26.1741H62.407V26.8193H62.5353C63.8243 26.8193 63.9539 27.2067 63.9539 28.4957V41.9055C63.9539 43.1945 63.8243 43.5818 62.5353 43.5818H62.407V44.227H72.9291ZM50.9315 26.1754V26.8206H51.061C52.35 26.8206 52.4796 27.208 52.4796 28.497V41.9068C52.4796 43.1958 52.3513 43.5831 51.061 43.5831H50.9315V44.2283H56.3467V43.5831H56.2184C54.9294 43.5831 54.7998 43.1958 54.7998 41.9068V35.3308H55.9606C57.1214 35.3308 58.1526 35.5886 58.1526 37.1354V37.2637H58.7978V32.6219H58.1526V32.7501C58.1526 34.297 57.1214 34.5548 55.9606 34.5548H54.7998V28.4944C54.7998 27.3336 54.7998 26.9476 56.2184 26.9476H58.1526C59.3134 26.9476 60.2151 28.1083 61.7632 30.6864L62.2788 30.5581L61.0662 26.1741H50.9315V26.1754ZM43.4525 28.4957C43.4525 27.2067 43.5808 26.8193 44.8711 26.8193H45.0006V26.1741H40.9522L38.8379 37.6497L36.5423 26.1741H32.3643V26.8193C33.9111 26.8193 34.1689 27.7223 34.1689 28.8818V41.5181C34.1689 42.6789 33.9111 43.5818 32.3643 43.5818V44.227H36.7483V43.5818C35.2015 43.5818 34.9436 42.6789 34.9436 41.5181V29.3974L37.9091 44.2257H38.4247L41.1323 29.3974V41.9042C41.1323 43.1932 41.0027 43.5805 39.7137 43.5805H39.5854V44.2257H45.0006V43.5805H44.8711C43.5821 43.5805 43.4525 43.1932 43.4525 41.9042V28.4944V28.4957ZM31.1517 44.227L32.3643 39.843L31.8487 39.7148C30.3019 42.2941 29.3989 43.4536 28.2381 43.4536H26.3039C24.8853 43.4536 24.8853 43.0662 24.8853 41.9068V28.497C24.8853 27.208 25.0136 26.8206 26.3039 26.8206H26.4322V26.1754H21.017V26.8206H21.1452C22.4343 26.8206 22.5638 27.208 22.5638 28.497V41.9068C22.5638 43.1958 22.4355 43.5831 21.1452 43.5831H21.017V44.2283H31.1517V44.227ZM11.2178 44.227H20.2436V43.5818H19.3406C17.1486 43.5818 16.8908 43.1945 16.8908 41.6477V28.7535C16.8908 27.2067 17.1486 26.8193 19.3406 26.8193H20.2436V26.1741H11.2178V26.8193H12.1207C14.3127 26.8193 14.5705 27.2067 14.5705 28.7535V41.6477C14.5705 43.1945 14.3127 43.5818 12.1207 43.5818H11.2178V44.227ZM0 26.1754V26.8206H0.128255C1.41728 26.8206 1.54683 27.208 1.54683 28.497V41.9068C1.54683 43.1958 1.41728 43.5831 0.128255 43.5831H0V44.2283H5.41521V43.5831H5.28566C3.99663 43.5831 3.86708 43.1958 3.86708 41.9068V35.3308H5.02785C6.18863 35.3308 7.21985 35.5886 7.21985 37.1354V37.2637H7.86501V32.6219H7.21985V32.7501C7.21985 34.297 6.18863 34.5548 5.02785 34.5548H3.86708V28.4944C3.86708 27.3336 3.86708 26.9476 5.28566 26.9476H7.21985C8.38062 26.9476 9.28359 28.1083 10.8304 30.6864L11.346 30.5581L10.1334 26.1741H0V26.1754Z" fill="#F1ECE6"/>
<path d="M96.4477 1.1606C98.5115 1.1606 100.058 2.32137 100.058 4.89943C100.058 7.47748 98.6656 8.76781 96.4477 8.76781H95.287V2.70744C95.287 1.54666 95.5448 1.1606 96.4477 1.1606ZM96.6796 9.54122L100.444 18.4387H103.925V17.7936H103.796C102.765 17.7936 102.559 17.5099 102.068 16.3232L99.0245 9.15387C101.061 8.4828 102.635 7.01369 102.635 4.89943C102.635 1.67621 99.6696 0.385891 96.4451 0.385891H91.416V1.03105H91.5442C92.8333 1.03105 92.9628 1.41841 92.9628 2.70744V16.1172C92.9628 17.4062 92.8333 17.7936 91.5442 17.7936H91.416V18.4387H96.8312V17.7936H96.7016C95.4126 17.7936 95.2831 17.4062 95.2831 16.1172V9.54122H96.6757H96.6796ZM84.7402 5.64693L86.2353 11.7332H83.2699L84.7402 5.64693ZM81.4911 15.7311C81.2074 16.9683 80.7177 17.7936 79.1696 17.7936V18.4387H83.6831V17.7936H83.5549C82.2658 17.7936 81.9562 17.2002 82.2917 15.8076L83.0911 12.5066H86.4438L87.3468 16.2455C87.6564 17.5086 87.2691 17.7923 86.1096 17.7923H85.9813V18.4375H91.6803V17.7923C90.2617 17.7923 89.978 17.2767 89.6424 15.9358L85.7974 0.128086H85.2818L81.4911 15.7298V15.7311ZM69.8083 0.387187L68.5957 4.77117L69.1113 4.89943C70.6581 2.32008 71.5611 1.1606 72.7219 1.1606H73.7531V16.1172C73.7531 17.4062 73.4953 17.7936 72.0767 17.7936H71.8189V18.4387H78.0075V17.7936H77.7497C76.3311 17.7936 76.0733 17.4062 76.0733 16.1172V1.1606H77.1045C78.2653 1.1606 79.167 2.32137 80.7151 4.89943L81.2307 4.77117L80.0181 0.387187H69.8057H69.8083ZM63.0522 -0.000169339C60.6024 -0.000169339 58.2809 1.54666 58.2809 4.51337C58.2809 9.28471 66.2754 10.1864 66.2754 15.086C66.2754 17.0202 65.1146 18.0514 63.4383 18.0514C61.2463 18.0514 59.9572 16.7624 58.6669 13.1518L58.0218 13.28L58.9765 18.6953L60.3951 18.076C60.7825 18.3338 61.7878 18.8235 63.4383 18.8235C66.0176 18.8235 68.3379 17.2767 68.3379 14.0522C68.3379 8.63696 60.3433 7.47619 60.3433 3.47956C60.3433 1.67492 61.6323 0.771951 63.0509 0.771951C64.9851 0.771951 66.1459 2.06098 67.4349 5.67155L68.0801 5.542L67.1253 0.12679L65.7067 0.746041C65.3453 0.488236 64.4695 -0.00146484 63.0509 -0.00146484M49.3846 2.70744C49.3846 1.41841 49.5129 1.03105 50.8032 1.03105H50.9328V0.387187H45.5176V1.03235H45.6458C46.9348 1.03235 47.0644 1.4197 47.0644 2.70873V16.1185C47.0644 17.4075 46.9348 17.7949 45.6458 17.7949H45.5176V18.44H50.9328V17.7949H50.8032C49.5142 17.7949 49.3846 17.4075 49.3846 16.1185V11.3731L50.9056 9.10334L53.8451 16.2468C54.3866 17.5617 54.0251 17.7936 53.0716 17.7936H52.9421V18.4387H58.4091V17.7936H58.2809C57.2496 17.7936 56.8364 17.4321 56.3467 16.2468L52.4524 6.80771L54.9281 3.09479C55.8052 1.77985 56.6045 1.03105 58.1513 1.03105V0.387187H53.6378V1.03235H53.7673C55.3142 1.03235 54.7726 1.9094 54.0251 3.04427L49.3833 9.98169V2.70744H49.3846ZM37.6512 9.41297C37.6512 3.6104 38.9403 0.773247 41.004 0.773247C42.4226 0.773247 43.3256 2.06227 44.6146 5.67284L45.2597 5.54329L44.305 0.128086L42.8864 0.747337C42.5508 0.489531 41.7515 -0.000169339 40.6167 -0.000169339C37.5217 -0.000169339 34.9436 3.22305 34.9436 9.41297C34.9436 15.6029 37.523 18.8261 40.6167 18.8261C44.485 18.8261 45.2585 13.6687 45.2585 13.6687L44.6133 13.5404C44.6133 13.5404 43.8399 17.7949 41.1323 17.7949C39.0698 17.7949 37.6512 15.3451 37.6512 9.41426M28.6501 5.64693L30.1464 11.7332H27.181L28.6514 5.64693H28.6501ZM25.401 15.7311C25.1172 16.9683 24.6275 17.7936 23.0794 17.7936V18.4387H27.593V17.7936H27.4647C26.1757 17.7936 25.866 17.2002 26.2016 15.8076L27.0009 12.5066H30.3537L31.2566 16.2455C31.5663 17.5086 31.1789 17.7923 30.0194 17.7923H29.8912V18.4375H35.5901V17.7923C34.1715 17.7923 33.8878 17.2767 33.5523 15.9358L29.7072 0.128086H29.1916L25.401 15.7298V15.7311ZM22.3837 18.4387L23.5963 14.0548L23.0807 13.9265C21.5339 16.5059 20.6309 17.6653 19.4701 17.6653H17.5359C16.1174 17.6653 16.1174 17.278 16.1174 16.1185V2.70744C16.1174 1.41841 16.2456 1.03105 17.5359 1.03105H17.6642V0.387187H12.249V1.03235H12.3773C13.6663 1.03235 13.7958 1.4197 13.7958 2.70873V16.1185C13.7958 17.4075 13.6676 17.7949 12.3773 17.7949H12.249V18.44H22.3837V18.4387ZM5.67301 1.1606C7.6072 1.1606 8.76797 2.32137 8.76797 4.64162C8.76797 7.09142 7.6072 8.38045 5.80257 8.38045H3.86838V2.70744C3.86838 1.54666 3.99663 1.1606 5.02915 1.1606H5.67431H5.67301ZM5.80257 9.15516C7.94274 9.15516 9.15533 10.702 9.15533 13.4873C9.15533 16.2727 7.73675 17.6653 5.54476 17.6653H5.02915C3.86838 17.6653 3.86838 17.278 3.86838 16.1185V9.15516H5.80257ZM0 18.4387H5.54476C9.41314 18.4387 11.8629 16.3763 11.8629 13.4873C11.8629 9.28342 7.73675 8.79372 7.73675 8.79372V8.66417C7.73675 8.66417 11.2178 7.86484 11.2178 4.51207C11.2178 2.32008 9.41314 0.385891 5.67301 0.385891H0V1.03105H0.128255C1.41728 1.03105 1.54683 1.41841 1.54683 2.70744V16.1172C1.54683 17.4062 1.41728 17.7936 0.128255 17.7936H0L0 18.4387Z" fill="#F1ECE6"/>
<path d="M55.6652 61.7035C55.6652 63.8683 56.8506 65.0524 59.0154 65.0524H64.3231C64.5291 65.0524 64.6833 65.2065 64.6833 65.4125V66.6497C64.6833 68.8145 65.8686 69.9999 68.0321 69.9999H69.5777C71.7425 69.9999 72.9278 68.8145 72.9278 66.6497V55.3127C72.9278 53.148 71.7425 51.9639 69.5777 51.9639H68.0321C65.8673 51.9639 64.6833 53.1493 64.6833 55.3127V60.0543C64.6833 60.2603 64.5291 60.4144 64.3231 60.4144H64.2713C64.0653 60.4144 63.9111 60.2603 63.9111 60.0543V55.3127C63.9111 53.148 62.7257 51.9639 60.5622 51.9639H59.0167C56.8519 51.9639 55.6665 53.1493 55.6665 55.3127V61.7022L55.6652 61.7035ZM40.7177 51.9639C38.5529 51.9639 37.3688 53.1493 37.3688 55.3127V55.5965C37.3688 58.0437 38.812 58.9453 41.1815 58.3792L43.9642 57.7094C44.428 57.6058 44.6858 57.6835 44.7118 57.9413C44.7636 58.1991 44.5835 58.3533 44.222 58.4569L41.0792 59.2563C38.2187 59.9779 37.3688 61.0855 37.3688 63.9978V66.651C37.3688 68.8663 38.5024 70.0012 40.7177 70.0012H51.2813C53.446 70.0012 54.6314 68.8158 54.6314 66.651C54.6314 64.4862 53.4201 63.3021 51.2813 63.3021H47.133C46.9271 63.3021 46.7729 63.148 46.7729 62.942V62.8902C46.7729 62.6842 46.9271 62.53 47.133 62.53H49.6321C52.5172 62.53 54.6301 60.417 54.6301 57.5319V56.9645C54.6301 54.0794 52.5172 51.9665 49.6321 51.9665H40.7177V51.9639ZM26.8001 56.9619C26.8001 56.7559 26.9543 56.6018 27.1603 56.6018H27.2121C27.4181 56.6018 27.5722 56.7559 27.5722 56.9619V65.0005C27.5722 65.2065 27.4181 65.3607 27.2121 65.3607H27.1603C26.9543 65.3607 26.8001 65.2065 26.8001 65.0005V56.9619ZM30.8201 69.9999C33.7051 69.9999 35.8181 67.8869 35.8181 65.0018V56.9632C35.8181 54.0781 33.7051 51.9652 30.8201 51.9652H23.5536C20.6672 51.9652 18.5555 54.0781 18.5555 56.9632V65.0018C18.5555 67.8869 20.6685 69.9999 23.5536 69.9999H30.8201ZM3.34888 51.9639C1.18409 51.9639 0 53.1493 0 55.3127V55.5965C0 58.0437 1.44319 58.9453 3.81267 58.3792L6.59541 57.7094C7.0592 57.6058 7.31701 57.6835 7.34292 57.9413C7.39474 58.1991 7.21466 58.3533 6.85322 58.4569L3.71033 59.2563C0.849851 59.9779 0 61.0855 0 63.9978V66.651C0 68.8663 1.13357 70.0012 3.34888 70.0012H13.9124C16.0772 70.0012 17.2626 68.8158 17.2626 66.651C17.2626 64.4862 16.0513 63.3021 13.9124 63.3021H9.76422C9.55823 63.3021 9.40407 63.148 9.40407 62.942V62.8902C9.40407 62.6842 9.55823 62.53 9.76422 62.53H12.2632C15.1483 62.53 17.2613 60.417 17.2613 57.5319V56.9645C17.2613 54.0794 15.1483 51.9665 12.2632 51.9665H3.34888V51.9639Z" fill="#F1ECE6"/>
</g>
<defs>
<clipPath id="clip0_1_2106">
<rect width="139.9" height="70" fill="white"/>
</clipPath>
</defs>
</svg>
