<svg width="18" height="18" viewBox="0 0 18 18" fill="none" xmlns="http://www.w3.org/2000/svg">
<g clip-path="url(#clip0_1_116)">
<mask id="mask0_1_116" style="mask-type:luminance" maskUnits="userSpaceOnUse" x="0" y="0" width="19" height="18">
<path d="M18.004 0.962524H0V17.0375H18.004V0.962524Z" fill="white"/>
</mask>
<g mask="url(#mask0_1_116)">
<path d="M12.86 0.962525C12.1291 0.962076 11.4066 1.1179 10.7408 1.41955C10.0751 1.7212 9.48156 2.16171 9 2.71153C8.31035 1.92639 7.39773 1.37017 6.38383 1.11703C5.36994 0.863896 4.30297 0.925877 3.32521 1.29471C2.34745 1.66354 1.50537 2.3217 0.91127 3.18141C0.317168 4.04111 -0.000718947 5.06151 1.22094e-06 6.10653C1.22094e-06 11.8935 9 17.0375 9 17.0375C9 17.0375 18 11.8935 18 6.10653C18 4.74294 17.4586 3.43515 16.4948 2.47058C15.531 1.50601 14.2236 0.963586 12.86 0.962525ZM11.313 10.4405L10.762 10.9915L9 9.22853L7.234 10.9925L6.683 10.4415L8.447 8.67653L6.683 6.91353L7.234 6.36253L9 8.12653L10.761 6.36253L11.312 6.91353L9.549 8.67653L11.313 10.4405Z" fill="black"/>
</g>
</g>
<defs>
<clipPath id="clip0_1_116">
<rect width="18.004" height="16.075" fill="white" transform="translate(0 0.962524)"/>
</clipPath>
</defs>
</svg>
